<mxfile host="Electron" modified="2024-02-11T01:06:48.548Z" agent="Mozilla/5.0 (Windows NT 10.0; Win64; x64) AppleWebKit/537.36 (KHTML, like Gecko) draw.io/23.0.2 Chrome/120.0.6099.109 Electron/28.1.0 Safari/537.36" etag="HtptK60JICfVlrFGArXh" version="23.0.2" type="device">
  <diagram name="Page-1" id="N0j4jpU2vBgo04bXPTEN">
    <mxGraphModel dx="5736" dy="3416" grid="1" gridSize="10" guides="1" tooltips="1" connect="1" arrows="1" fold="1" page="1" pageScale="1" pageWidth="850" pageHeight="1400" math="0" shadow="0">
      <root>
        <mxCell id="0" />
        <mxCell id="1" parent="0" />
        <mxCell id="_7wX0xuQ3h58RrBZX-dN-1" value="" style="rounded=0;whiteSpace=wrap;html=1;sketch=1;hachureGap=4;jiggle=2;curveFitting=1;fontFamily=Architects Daughter;fontSource=https%3A%2F%2Ffonts.googleapis.com%2Fcss%3Ffamily%3DArchitects%2BDaughter;fontSize=20;" vertex="1" parent="1">
          <mxGeometry x="40" y="40" width="1440" height="3120" as="geometry" />
        </mxCell>
        <mxCell id="_7wX0xuQ3h58RrBZX-dN-2" value="" style="rounded=0;whiteSpace=wrap;html=1;sketch=1;hachureGap=4;jiggle=2;curveFitting=1;fontFamily=Architects Daughter;fontSource=https%3A%2F%2Ffonts.googleapis.com%2Fcss%3Ffamily%3DArchitects%2BDaughter;fontSize=20;" vertex="1" parent="1">
          <mxGeometry x="40" y="40" width="1440" height="280" as="geometry" />
        </mxCell>
        <mxCell id="_7wX0xuQ3h58RrBZX-dN-3" value="LOGO HERE" style="ellipse;whiteSpace=wrap;html=1;aspect=fixed;sketch=1;hachureGap=4;jiggle=2;curveFitting=1;fontFamily=Architects Daughter;fontSource=https%3A%2F%2Ffonts.googleapis.com%2Fcss%3Ffamily%3DArchitects%2BDaughter;fontSize=20;" vertex="1" parent="1">
          <mxGeometry x="60" y="60" width="240" height="240" as="geometry" />
        </mxCell>
        <mxCell id="_7wX0xuQ3h58RrBZX-dN-4" value="" style="rounded=1;whiteSpace=wrap;html=1;sketch=1;hachureGap=4;jiggle=2;curveFitting=1;fontFamily=Architects Daughter;fontSource=https%3A%2F%2Ffonts.googleapis.com%2Fcss%3Ffamily%3DArchitects%2BDaughter;fontSize=20;arcSize=50;" vertex="1" parent="1">
          <mxGeometry x="1200" y="100" width="230" height="40" as="geometry" />
        </mxCell>
        <mxCell id="_7wX0xuQ3h58RrBZX-dN-5" value="" style="rounded=1;whiteSpace=wrap;html=1;sketch=1;hachureGap=4;jiggle=2;curveFitting=1;fontFamily=Architects Daughter;fontSource=https%3A%2F%2Ffonts.googleapis.com%2Fcss%3Ffamily%3DArchitects%2BDaughter;fontSize=20;arcSize=50;" vertex="1" parent="1">
          <mxGeometry x="1200" y="170" width="230" height="40" as="geometry" />
        </mxCell>
        <mxCell id="_7wX0xuQ3h58RrBZX-dN-6" value="" style="rounded=1;whiteSpace=wrap;html=1;sketch=1;hachureGap=4;jiggle=2;curveFitting=1;fontFamily=Architects Daughter;fontSource=https%3A%2F%2Ffonts.googleapis.com%2Fcss%3Ffamily%3DArchitects%2BDaughter;fontSize=20;arcSize=50;" vertex="1" parent="1">
          <mxGeometry x="1200" y="240" width="230" height="40" as="geometry" />
        </mxCell>
        <mxCell id="_7wX0xuQ3h58RrBZX-dN-7" value="" style="rounded=1;whiteSpace=wrap;html=1;sketch=1;hachureGap=4;jiggle=2;curveFitting=1;fontFamily=Architects Daughter;fontSource=https%3A%2F%2Ffonts.googleapis.com%2Fcss%3Ffamily%3DArchitects%2BDaughter;fontSize=20;arcSize=50;rotation=-45;" vertex="1" parent="1">
          <mxGeometry x="920" y="200" width="180" height="30" as="geometry" />
        </mxCell>
        <mxCell id="_7wX0xuQ3h58RrBZX-dN-8" value="" style="ellipse;whiteSpace=wrap;html=1;aspect=fixed;sketch=1;hachureGap=4;jiggle=2;curveFitting=1;fontFamily=Architects Daughter;fontSource=https%3A%2F%2Ffonts.googleapis.com%2Fcss%3Ffamily%3DArchitects%2BDaughter;fontSize=20;" vertex="1" parent="1">
          <mxGeometry x="1010" y="90" width="120" height="120" as="geometry" />
        </mxCell>
        <mxCell id="_7wX0xuQ3h58RrBZX-dN-9" value="" style="shape=trapezoid;perimeter=trapezoidPerimeter;whiteSpace=wrap;html=1;fixedSize=1;sketch=1;hachureGap=4;jiggle=2;curveFitting=1;fontFamily=Architects Daughter;fontSource=https%3A%2F%2Ffonts.googleapis.com%2Fcss%3Ffamily%3DArchitects%2BDaughter;fontSize=20;rotation=-180;" vertex="1" parent="1">
          <mxGeometry x="710" y="130" width="160" height="80" as="geometry" />
        </mxCell>
        <mxCell id="_7wX0xuQ3h58RrBZX-dN-10" value="" style="ellipse;whiteSpace=wrap;html=1;aspect=fixed;sketch=1;hachureGap=4;jiggle=2;curveFitting=1;fontFamily=Architects Daughter;fontSource=https%3A%2F%2Ffonts.googleapis.com%2Fcss%3Ffamily%3DArchitects%2BDaughter;fontSize=20;" vertex="1" parent="1">
          <mxGeometry x="690" y="235" width="50" height="50" as="geometry" />
        </mxCell>
        <mxCell id="_7wX0xuQ3h58RrBZX-dN-11" value="" style="ellipse;whiteSpace=wrap;html=1;aspect=fixed;sketch=1;hachureGap=4;jiggle=2;curveFitting=1;fontFamily=Architects Daughter;fontSource=https%3A%2F%2Ffonts.googleapis.com%2Fcss%3Ffamily%3DArchitects%2BDaughter;fontSize=20;" vertex="1" parent="1">
          <mxGeometry x="840" y="235" width="50" height="50" as="geometry" />
        </mxCell>
        <mxCell id="_7wX0xuQ3h58RrBZX-dN-12" value="" style="rounded=0;whiteSpace=wrap;html=1;sketch=1;hachureGap=4;jiggle=2;curveFitting=1;fontFamily=Architects Daughter;fontSource=https%3A%2F%2Ffonts.googleapis.com%2Fcss%3Ffamily%3DArchitects%2BDaughter;fontSize=20;" vertex="1" parent="1">
          <mxGeometry x="650" y="100" width="70" height="20" as="geometry" />
        </mxCell>
        <mxCell id="_7wX0xuQ3h58RrBZX-dN-13" value="" style="rounded=0;whiteSpace=wrap;html=1;sketch=1;hachureGap=4;jiggle=2;curveFitting=1;fontFamily=Architects Daughter;fontSource=https%3A%2F%2Ffonts.googleapis.com%2Fcss%3Ffamily%3DArchitects%2BDaughter;fontSize=20;" vertex="1" parent="1">
          <mxGeometry x="720" y="225" width="140" height="10" as="geometry" />
        </mxCell>
        <mxCell id="_7wX0xuQ3h58RrBZX-dN-14" value="" style="rounded=0;whiteSpace=wrap;html=1;sketch=1;hachureGap=4;jiggle=2;curveFitting=1;fontFamily=Architects Daughter;fontSource=https%3A%2F%2Ffonts.googleapis.com%2Fcss%3Ffamily%3DArchitects%2BDaughter;fontSize=20;" vertex="1" parent="1">
          <mxGeometry x="720" y="320" width="760" height="2830" as="geometry" />
        </mxCell>
        <mxCell id="_7wX0xuQ3h58RrBZX-dN-15" value="&lt;font style=&quot;font-size: 55px;&quot;&gt;Login (Account if logged in)&lt;/font&gt;" style="rounded=0;whiteSpace=wrap;html=1;sketch=1;hachureGap=4;jiggle=2;curveFitting=1;fontFamily=Architects Daughter;fontSource=https%3A%2F%2Ffonts.googleapis.com%2Fcss%3Ffamily%3DArchitects%2BDaughter;fontSize=20;strokeWidth=0;" vertex="1" parent="1">
          <mxGeometry x="720" y="330" width="760" height="240" as="geometry" />
        </mxCell>
        <mxCell id="_7wX0xuQ3h58RrBZX-dN-16" value="&lt;font style=&quot;font-size: 55px;&quot;&gt;Product&lt;/font&gt;" style="rounded=0;whiteSpace=wrap;html=1;sketch=1;hachureGap=4;jiggle=2;curveFitting=1;fontFamily=Architects Daughter;fontSource=https%3A%2F%2Ffonts.googleapis.com%2Fcss%3Ffamily%3DArchitects%2BDaughter;fontSize=20;strokeWidth=0;" vertex="1" parent="1">
          <mxGeometry x="725" y="570" width="760" height="240" as="geometry" />
        </mxCell>
        <mxCell id="_7wX0xuQ3h58RrBZX-dN-17" value="&lt;font style=&quot;font-size: 55px;&quot;&gt;Shopping Cart&lt;/font&gt;" style="rounded=0;whiteSpace=wrap;html=1;sketch=1;hachureGap=4;jiggle=2;curveFitting=1;fontFamily=Architects Daughter;fontSource=https%3A%2F%2Ffonts.googleapis.com%2Fcss%3Ffamily%3DArchitects%2BDaughter;fontSize=20;strokeWidth=0;" vertex="1" parent="1">
          <mxGeometry x="725" y="820" width="750" height="240" as="geometry" />
        </mxCell>
        <mxCell id="_7wX0xuQ3h58RrBZX-dN-18" value="&lt;font style=&quot;font-size: 55px;&quot;&gt;About Us&lt;/font&gt;" style="rounded=0;whiteSpace=wrap;html=1;sketch=1;hachureGap=4;jiggle=2;curveFitting=1;fontFamily=Architects Daughter;fontSource=https%3A%2F%2Ffonts.googleapis.com%2Fcss%3Ffamily%3DArchitects%2BDaughter;fontSize=20;strokeWidth=0;" vertex="1" parent="1">
          <mxGeometry x="730" y="1060" width="740" height="240" as="geometry" />
        </mxCell>
      </root>
    </mxGraphModel>
  </diagram>
</mxfile>
